# xmcd CD database file
#
# Track frame offsets:
#	150
#	13412
#	31870
#	49550
#	70728
#	91158
#	111113
#	133474
#
# Disc length: 2026 seconds
#
# Revision: 0
# Processed by: cddbd v1.5.1PL2 Copyright (c) Steve Scherf et al.
# Submitted via: CDex 1.51
#
DISCID=6707e808
DTITLE=Lewis Copeland - Dream
DYEAR=2006
DGENRE=Country
TTITLE0=Hillbilly Heaven
TTITLE1=Where Your Home Is
TTITLE2=She's Country
TTITLE3=Through The Rain
TTITLE4=Tell Me You're An Angel
TTITLE5=That's The Life
TTITLE6=The Man I'm Supposed To Be
TTITLE7=Dream
EXTD=YEAR: 2006
EXTT0=
EXTT1=
EXTT2=
EXTT3=
EXTT4=
EXTT5=
EXTT6=
EXTT7=
PLAYORDER=
